<svg xmlns="http://www.w3.org/2000/svg" width="237" height="141" viewBox="0 0 237 141">
    <g fill="none" fill-rule="nonzero">
        <path fill="#F18300" d="M13.302 23.735S31.005 9.349 61.338 1.392C91.67-6.566 91.975 22.204 91.975 22.204s1.525 24.333-19.21 36.423c-20.736 12.09-54.736 0-54.736 0s-37.202-11.167-4.727-34.892z"/>
        <path fill="#FFF" d="M77.536 13.985c.517.587.7 1.393.499 2.15l-.114.41a4.44 4.44 0 0 1-1.337 2.145l-7.09 6.279.583 16.805a4.378 4.378 0 0 1-1.465 3.42l-1.04.921-5.467-13.297a1.013 1.013 0 0 0-.185-.304 1.07 1.07 0 0 0-.89-.358l-5.562 4.927-.571 8.757-.503-.031a2.197 2.197 0 0 1-1.853-1.36l-2.514-6.1-5.717-3.262a2.206 2.206 0 0 1-1.114-2.015l.031-.505 8.728.52 5.563-4.926c.07-.338-.024-.681-.244-.93a1.012 1.012 0 0 0-.278-.222l-12.464-7.1 1.04-.921a4.344 4.344 0 0 1 3.564-1.034l16.54 2.672 7.09-6.279a4.408 4.408 0 0 1 2.287-1.065l.42-.062a2.318 2.318 0 0 1 2.063.765zM0 42.682s7.852 7.728 23.404 3.978c15.551-3.749 21.726-8.952 21.726-8.952s3.507.995 4.955 5.586c0 0-12.124 7.753-31.103 7.422-4.51-.078-10.825.01-18.982-8.034z"/>
        <path fill="#F18300" d="M121.963 44l-3.328-11.755-11.241-.101L104.037 44H96l12.416-38h9.12L130 44h-8.037zm-4.664-17.985c-2.358-8.162-3.123-10.828-3.42-11.898a41.101 41.101 0 0 1-.638-2.537c-.529 2.209-1.503 5.782-4.006 14.497l8.064-.062z"/>
        <path fill="#1976D2" d="M137.22 140.556H130v-27.515c0-3.931 3.233-11.041 7.22-11.041v38.556zm20.683-1.477v-3.661c-.784 1.319-3.1 4.07-6.562 4.07-3.151 0-6.033-.216-7.633-2-1.599-1.785-2.398-4.351-2.398-7.7v-18.494h7.04v16.566c0 2.047.165 5.21 1.008 6.115.93 1 2.563 1.276 4.432 1.25 2.137-.028 3.615-1.866 4.113-2.98v-20.951h6.908v27.81l-6.908-.025zm25.538-26.367c3.166 0 5.936 1.385 7.728 3.998 1.791 2.613 2.831 5.215 2.831 9.764 0 4.686-.984 7.731-2.831 10.302-1.848 2.571-5.95 4.224-9.133 4.224-2.708 0-4.047-.736-5.597-2.15l.064 1.717h-6.918v-27.742c0-5.28 2.877-10.825 6.918-10.825v13.125c1.76-2.59 6.097-2.413 6.938-2.413zm-2.337 2.3c-1.807 0-3.148.634-3.98 1.809v19.261s1.404 2.4 3.956 2.4c2.625 0 4.495-3.159 4.934-4.852.462-1.784.752-4.682.752-7.473 0-2.371-.113-4.98-.638-6.545-.573-1.71-1.632-4.6-5.024-4.6z"/>
        <path fill="#F18300" d="M125 107.167v-5.653S120.54 100 116.182 100c-4.359 0-11.86 1.413-16.522 7.772-4.662 6.36-4.763 17.665-.912 23.418 3.851 5.754 11.749 11.28 26.252 7.646v-6.233s-3.142 3.735-9.528 3.735c-6.385 0-10.338-7.066-10.744-10.598-.406-3.533-1.723-13.022 3.75-18.977 5.474-5.955 14.09-2.524 16.522.404z"/>
        <path fill="#1976D2" d="M158.14 8.033c0-2.688 1.327-4.033 3.98-4.033s3.98 1.345 3.98 4.033c0 1.281-.332 2.278-.995 2.99-.663.713-1.658 1.07-2.985 1.07-2.653 0-3.98-1.354-3.98-4.06zM165.453 44h-7.313V15.289h7.313V44zm-27.24 0L128 15.289h7.648l6.317 18.192 6.317-18.192h7.648L145.717 44h-7.504zm55.493-6.005c.098 1.159.688 4.047 2.294 4.047h-9.558v-1.527s-1.836 2.214-7.8 2.214c-5.965 0-9.199-2.85-9.199-8.248 0-5.114 5.019-9.467 9.887-9.467h6.959v-4.352c0-.663-.178-4.124-4.41-4.124-2.83 0-4.843.56-7.672 2.927v-4.76s3.568-1.298 7.877-1.298c2.981 0 9.251.191 11.01 5.804.83 2.648.616 8.342.612 11.683-.002 1.775-.15 5.332 0 7.101zm-7.575 1.613V28.459c-9.826 0-9.29 6.033-9.061 8.705.215 2.51 2.484 4.009 4.817 4.009s4.244-1.565 4.244-1.565zM139.463 64.289c.993 0 1.655.037 2.313.19v6.631s-1.879-2.363-5.532-2.43c-1.842-.033-3.524 1.77-4.83 3.054V93H124V64.794h7.426l-.026 3.85c1.723-3.029 6.396-4.355 8.063-4.355zM181.456 93l-10.24-28.711h7.668l6.334 18.192 6.333-18.192h7.668L188.979 93h-7.523zm32.252-1.27c-4.44-.114-7.598-1.038-10.098-3.59-2.5-2.55-4.063-6.18-4.063-10.854 0-4.81 1.548-8.382 3.859-11.01 2.31-2.628 5.113-3.869 9.192-3.869 3.898 0 6.934.934 9.104 3.247 3.796 4.046 3.257 10.078 3.257 10.078H207.17c.082 2.226-.532 13.103 7.71 13.103 6.593 0 8.524-2.552 8.524-2.552v4.073c-1.316.684-4.902 1.495-9.696 1.373zm.193-25.56c-2.994 0-4.78 5.167-4.911 7.102h10.19c-.033-1.935-1.68-7.102-5.28-7.102zM237 92.03h-7.235V64.177c0-3.98 3.24-11.177 7.235-11.177v39.029zm-69.788-5.034c.099 1.159.69 4.047 2.3 4.047h-9.583v-1.527s-1.84 2.214-7.82 2.214-9.222-2.85-9.222-8.248c0-5.114 5.031-9.467 9.912-9.467h6.977v-4.352c0-.663-.179-4.124-4.421-4.124-2.837 0-4.856.56-7.692 2.927v-4.76s3.577-1.298 7.897-1.298c2.99 0 9.276.191 11.04 5.804.831 2.648.616 8.342.612 11.683-.001 1.775-.15 5.332 0 7.101zm-7.594 1.613V77.459c-9.852 0-9.315 6.033-9.085 8.705.216 2.51 2.491 4.009 4.83 4.009s4.255-1.565 4.255-1.565z"/>
        <path fill="#F18300" d="M124 57.723c-1.23-1.475-4.635-1.573-4.635-1.573h-5.719V92h-7.292V56.15h-5.719s-3.404.098-4.635 1.573L96.912 53h26.176l.912 4.723z"/>
    </g>
</svg>
